<?xml version="1.0" encoding="UTF-8"?>
<svg version="1.1" xmlns="http://www.w3.org/2000/svg" width="500" height="500">
<path d="M0 0 C2.3002866 0.40911468 4.60397325 0.79157445 6.90917969 1.171875 C16.30579141 2.77389605 25.42619218 4.46453741 32.78417969 10.96875 C33.41066406 11.50113281 34.03714844 12.03351563 34.68261719 12.58203125 C40.49388185 19.56343744 39.77435009 26.90612287 39.59667969 35.59375 C39.58314453 36.84994141 39.56960937 38.10613281 39.55566406 39.40039062 C39.5204656 42.48612279 39.47122274 45.57096024 39.40917969 48.65625 C33.20606282 48.69445786 27.03805936 48.68247907 20.84667969 48.28125 C19.66976562 48.21164063 18.49285156 48.14203125 17.28027344 48.0703125 C14.40917969 47.65625 14.40917969 47.65625 12.40917969 45.65625 C12.09033203 43.68505859 12.09033203 43.68505859 11.99511719 41.3046875 C11.93710938 40.02851563 11.93710938 40.02851563 11.87792969 38.7265625 C11.84699219 37.83710938 11.81605469 36.94765625 11.78417969 36.03125 C11.72617188 34.68546875 11.72617188 34.68546875 11.66699219 33.3125 C11.57258612 31.0939573 11.48701221 28.87542597 11.40917969 26.65625 C3.8749831 24.8303288 -3.83913725 23.60842075 -11.59082031 24.65625 C-13.84952139 28.04430161 -13.88341445 29.42975741 -14.00488281 33.41796875 C-14.04355469 34.53623047 -14.08222656 35.65449219 -14.12207031 36.80664062 C-14.15300781 37.97388672 -14.18394531 39.14113281 -14.21582031 40.34375 C-14.25449219 41.52259766 -14.29316406 42.70144531 -14.33300781 43.91601562 C-14.42736451 46.82927875 -14.51135195 49.742554 -14.59082031 52.65625 C-13.91300003 52.77239151 -13.23517975 52.88853302 -12.53681946 53.00819397 C-6.14279035 54.13280708 0.13968917 55.48382799 6.42871094 57.08984375 C7.8173938 57.44069283 7.8173938 57.44069283 9.23413086 57.79862976 C12.23132634 58.55849511 15.22668607 59.32525466 18.22167969 60.09375 C19.75881119 60.48684357 19.75881119 60.48684357 21.32699585 60.88787842 C36.01627768 64.65191681 50.64932935 68.58696061 65.22167969 72.78125 C66.03972076 73.01472137 66.85776184 73.24819275 67.70059204 73.48873901 C69.98730875 74.143583 72.27097602 74.80798788 74.55371094 75.4765625 C75.22539307 75.66876877 75.8970752 75.86097504 76.58911133 76.05900574 C79.49357576 76.92356766 81.23042543 77.47749574 83.40917969 79.65625 C83.68333435 81.46191406 83.68333435 81.46191406 83.71557617 83.671875 C83.73156357 84.50033936 83.74755096 85.32880371 83.76402283 86.18237305 C83.76938553 87.08125244 83.77474823 87.98013184 83.78027344 88.90625 C83.78930191 89.8341333 83.79833038 90.7620166 83.80763245 91.71801758 C83.82216523 93.68844365 83.83102917 95.65891832 83.8347168 97.62939453 C83.84652483 100.61706672 83.89560356 103.60261334 83.94628906 106.58984375 C84.11392591 125.97226828 84.11392591 125.97226828 78.40917969 132.65625 C69.25871344 140.58466029 58.16663687 142.26553088 46.55273438 144.01879883 C44.41186946 144.34334225 42.27389627 144.68349185 40.13574219 145.02539062 C28.84565026 146.79178222 17.59456594 148.45230312 7.09667969 142.90625 C3.27461643 139.70638309 0.983142 136.37813693 -0.59082031 131.65625 C-0.67420072 129.51830475 -0.69815778 127.37782991 -0.68847656 125.23828125 C-0.68525391 123.98466797 -0.68203125 122.73105469 -0.67871094 121.43945312 C-0.66614258 119.47395508 -0.66614258 119.47395508 -0.65332031 117.46875 C-0.64830349 116.13346519 -0.6437409 114.79817859 -0.63964844 113.46289062 C-0.62784726 110.19396527 -0.61138329 106.92513009 -0.59082031 103.65625 C8.2796107 99.22103449 22.63023938 101.56418885 32.40917969 101.65625 C32.46976562 102.86023438 32.53035156 104.06421875 32.59277344 105.3046875 C32.67717701 106.88022077 32.7618251 108.45574096 32.84667969 110.03125 C32.88599609 110.8253125 32.9253125 111.619375 32.96582031 112.4375 C33.09811373 116.68226221 33.09811373 116.68226221 34.40917969 120.65625 C38.59528963 121.99240686 42.2394891 121.47746761 46.53417969 120.84375 C48.36335938 120.58658203 48.36335938 120.58658203 50.22949219 120.32421875 C53.54670062 119.8330866 53.54670062 119.8330866 56.40917969 117.65625 C57.33926859 114.8659833 57.59616738 112.89095458 57.72558594 109.98828125 C57.76369385 109.18366455 57.80180176 108.37904785 57.84106445 107.55004883 C57.88416748 106.53322021 57.92727051 105.5163916 57.97167969 104.46875 C58.04943161 102.71833012 58.12749509 100.96792406 58.20581055 99.2175293 C58.2441954 98.35661179 58.28258026 97.49569427 58.3221283 96.60868835 C58.35085526 95.9643837 58.37958221 95.32007904 58.40917969 94.65625 C57.86001892 94.5499527 57.31085815 94.4436554 56.74505615 94.33413696 C37.40060267 90.56986788 18.14663022 86.41142974 -1.10009766 82.18066406 C-5.51730207 81.21025285 -9.93679169 80.25066792 -14.35680771 79.29315758 C-17.79650776 78.54593231 -21.23441606 77.79071014 -24.67188263 77.03328323 C-26.30265504 76.67542799 -27.93409439 76.32059733 -29.56621552 75.96894455 C-31.82996296 75.48047094 -34.09092309 74.98066005 -36.3515625 74.47802734 C-37.63295105 74.19776703 -38.9143396 73.91750671 -40.23455811 73.62875366 C-43.48260566 72.68760606 -45.85037834 71.61885543 -48.59082031 69.65625 C-49.84424184 67.14940694 -49.73814756 65.4047548 -49.76782227 62.59912109 C-49.7806575 61.54397308 -49.79349274 60.48882507 -49.80671692 59.40170288 C-49.81410385 58.25593781 -49.82149078 57.11017273 -49.82910156 55.9296875 C-49.83717331 54.75290436 -49.84524506 53.57612122 -49.8535614 52.36367798 C-49.86741416 49.86697874 -49.87813096 47.37026047 -49.88598633 44.87353516 C-49.90315604 41.06766398 -49.9470282 37.26267097 -49.99121094 33.45703125 C-50.00134146 31.03125639 -50.00985644 28.60547414 -50.01660156 26.1796875 C-50.03410965 25.04606781 -50.05161774 23.91244812 -50.06965637 22.74447632 C-50.04700473 14.42839905 -48.70488611 8.91515607 -42.90332031 2.84375 C-30.0812923 -5.62362699 -14.30526419 -2.55956555 0 0 Z " fill="#1D5E6F" transform="translate(96.5908203125,181.34375)"/>
<path d="M0 0 C0.85501602 -0.00960754 1.71003204 -0.01921509 2.59095764 -0.02911377 C3.52314621 -0.03336365 4.45533478 -0.03761353 5.41577148 -0.04199219 C6.85012794 -0.0505423 6.85012794 -0.0505423 8.3134613 -0.05926514 C10.34535612 -0.06873557 12.37726644 -0.07525719 14.40917969 -0.07910156 C17.49954721 -0.08875067 20.58923373 -0.11973103 23.67944336 -0.15136719 C25.65404879 -0.15790273 27.62865898 -0.16315103 29.60327148 -0.16699219 C30.98029991 -0.18551239 30.98029991 -0.18551239 32.38514709 -0.20440674 C38.48183555 -0.18354577 44.74297622 0.23504313 49.49977112 4.54241943 C53.56369714 9.2285217 55.03507259 12.39263776 55.04931641 18.54296875 C55.32335674 30.48310646 61.11855902 39.2648372 67.47290039 48.94458008 C68.18881348 50.05244873 68.90472656 51.16031738 69.64233398 52.30175781 C70.30515381 53.28692383 70.96797363 54.27208984 71.65087891 55.28710938 C73.29831095 58.86459878 73.11776377 60.42403782 71.97436523 64.16113281 C70.515625 66.97509766 70.515625 66.97509766 68.66577148 69.87207031 C67.6694873 71.48130371 67.6694873 71.48130371 66.65307617 73.12304688 C66.30595581 73.68092896 65.95883545 74.23881104 65.60119629 74.81359863 C59.94667106 83.96499278 55.32154087 91.99339297 55.17749023 102.98925781 C54.88670506 107.52998009 53.33103308 110.69038153 50.25561523 114.02441406 C49.66780273 114.50265625 49.07999023 114.98089844 48.47436523 115.47363281 C47.59264648 116.21033203 47.59264648 116.21033203 46.69311523 116.96191406 C43.6625396 119.07642934 41.00358374 119.28700353 37.42700195 119.29052734 C36.50950165 119.2936795 35.59200134 119.29683167 34.646698 119.30007935 C33.65912506 119.29805511 32.67155212 119.29603088 31.65405273 119.29394531 C30.13245041 119.2953804 30.13245041 119.2953804 28.58010864 119.29684448 C26.43662453 119.29752499 24.29313835 119.29567973 22.1496582 119.29150391 C18.85550351 119.2861428 15.56148449 119.29145897 12.26733398 119.29785156 C10.1879066 119.29719098 8.1084793 119.29591022 6.02905273 119.29394531 C4.54162064 119.29698166 4.54162064 119.29698166 3.0241394 119.30007935 C1.65734543 119.2953511 1.65734543 119.2953511 0.26293945 119.29052734 C-0.9459343 119.28933395 -0.9459343 119.28933395 -2.17922974 119.28811646 C-4.02563477 119.16113281 -4.02563477 119.16113281 -5.02563477 118.16113281 C-5.12358546 116.6452717 -5.15195291 115.12485728 -5.15261841 113.60583496 C-5.15543823 112.62144943 -5.15825806 111.6370639 -5.16116333 110.62284851 C-5.1591391 109.53397842 -5.15711487 108.44510834 -5.1550293 107.32324219 C-5.15678162 106.1835347 -5.15853394 105.04382721 -5.16033936 103.86958313 C-5.16476062 100.08133445 -5.16181891 96.29313201 -5.15844727 92.50488281 C-5.15912023 89.88553865 -5.16009018 87.26619454 -5.16134644 84.64685059 C-5.16316797 79.14883925 -5.16076226 73.65084133 -5.15600586 68.15283203 C-5.15056327 61.78796295 -5.15232594 55.42312589 -5.15783226 49.05825758 C-5.16290905 42.94628949 -5.16238187 36.83433565 -5.15945053 30.72236633 C-5.15878099 28.1163177 -5.15961063 25.51026826 -5.16193008 22.90422058 C-5.16445499 19.26913248 -5.1606183 15.63410685 -5.1550293 11.99902344 C-5.15705353 10.91015335 -5.15907776 9.82128326 -5.16116333 8.69941711 C-5.15834351 7.71503159 -5.15552368 6.73064606 -5.15261841 5.71643066 C-5.15224138 4.85585304 -5.15186436 3.99527542 -5.15147591 3.10861969 C-4.91992094 -0.47486867 -3.14424524 0.02842417 0 0 Z M13.97436523 21.16113281 C12.09226958 23.04322846 12.8366839 26.28493259 12.82910156 28.78881836 C12.82574295 29.48158371 12.82238434 30.17434906 12.81892395 30.8881073 C12.80938214 33.19137337 12.80746881 35.49456692 12.80639648 37.79785156 C12.80318462 39.39630666 12.79982061 40.99476147 12.79631042 42.59321594 C12.79031002 45.95171794 12.7884713 49.31019419 12.7890625 52.66870117 C12.78916383 56.96495396 12.77554612 61.26104039 12.75829029 65.55725384 C12.74714701 68.86274467 12.74514406 72.1681957 12.74567223 75.47370338 C12.74449429 77.05687849 12.740083 78.64005469 12.73233986 80.22321129 C12.722499 82.4444155 12.72543467 84.66526418 12.73144531 86.88647461 C12.73002029 88.149207 12.72859528 89.41193939 12.72712708 90.7129364 C12.97589208 94.18242758 13.72382861 96.9290282 14.97436523 100.16113281 C22.49885099 96.78413049 27.7157479 89.30769679 32.97436523 83.16113281 C33.92871319 82.04778373 34.88314723 80.93450844 35.83764648 79.82128906 C37.4071935 77.990192 38.9763732 76.15878638 40.54443359 74.32641602 C44.32415291 69.91124825 48.12983383 65.52007335 51.97436523 61.16113281 C50.48587711 57.76768839 48.54167904 55.37883314 46.03686523 52.66113281 C45.23120117 51.78199219 44.42553711 50.90285156 43.59545898 49.99707031 C42.73049805 49.06121094 41.86553711 48.12535156 40.97436523 47.16113281 C39.63869622 45.70153574 38.30303636 44.24193012 36.96801758 42.78173828 C35.59040897 41.27634578 34.21048554 39.77310966 32.82983398 38.27050781 C30.85077945 36.11652818 28.87445643 33.96008717 26.90014648 31.80175781 C26.3998291 31.25503418 25.89951172 30.70831055 25.3840332 30.14501953 C24.42310608 29.09485208 23.46248026 28.04440883 22.50219727 26.99365234 C20.69023726 25.01457963 18.87201948 23.05878706 16.97436523 21.16113281 C15.98436523 21.16113281 14.99436523 21.16113281 13.97436523 21.16113281 Z " fill="#1E5873" transform="translate(387.025634765625,178.8388671875)"/>
<path d="M0 0 C0.93166992 -0.00570007 1.86333984 -0.01140015 2.82324219 -0.01727295 C4.80386209 -0.02674426 6.7844979 -0.03326534 8.76513672 -0.03710938 C11.77209872 -0.04674553 14.77835692 -0.07771927 17.78515625 -0.109375 C19.71093345 -0.11591189 21.63671554 -0.12115966 23.5625 -0.125 C24.89897583 -0.1435202 24.89897583 -0.1435202 26.26245117 -0.16241455 C33.41923872 -0.137352 39.58504982 1.16842815 45.6875 5.015625 C52.06980521 11.58564507 51.97531777 19.37897308 52.015625 27.96484375 C52.02132507 28.91067825 52.02702515 29.85651276 52.03289795 30.83100891 C52.04232753 32.83060597 52.0488738 34.83021842 52.05273438 36.82983398 C52.06241106 39.86274948 52.09344218 42.89497854 52.125 45.92773438 C52.13153386 47.87760018 52.13678282 49.82747079 52.140625 51.77734375 C52.1529718 52.67249191 52.1653186 53.56764008 52.17803955 54.48991394 C52.1545701 61.24679336 51.72507408 69.00869752 46.97979736 74.21318054 C45.31597186 75.66184865 43.64093345 76.97081095 41.8125 78.203125 C42.37136148 80.64150943 42.93375313 83.07895062 43.5 85.515625 C43.67499023 86.26875977 43.84998047 87.02189453 44.03027344 87.79785156 C45.61434638 94.52947043 47.3768687 101.20793845 49.23706055 107.8684082 C50.28153449 111.70825338 51.21762898 115.18299898 50.8125 119.203125 C48.8729886 121.1426364 46.0004288 120.33569129 43.42382812 120.33984375 C42.58271484 120.33597656 41.74160156 120.33210938 40.875 120.328125 C39.61913086 120.33392578 39.61913086 120.33392578 38.33789062 120.33984375 C37.53673828 120.33855469 36.73558594 120.33726562 35.91015625 120.3359375 C35.17289307 120.33480957 34.43562988 120.33368164 33.67602539 120.33251953 C31.8125 120.203125 31.8125 120.203125 29.8125 119.203125 C28.92197176 116.40185355 28.14781197 113.63921579 27.4296875 110.79296875 C27.21055695 109.95093399 26.99142639 109.10889923 26.76565552 108.24134827 C26.06531408 105.54301253 25.37630654 102.84192579 24.6875 100.140625 C24.2155856 98.31426128 23.74293883 96.48808662 23.26953125 94.66210938 C22.1086679 90.17793358 20.95796324 85.69125826 19.8125 81.203125 C16.8425 80.873125 13.8725 80.543125 10.8125 80.203125 C10.82035522 81.96740845 10.82035522 81.96740845 10.82836914 83.76733398 C10.84641663 88.11514531 10.85793108 92.4629533 10.86743164 96.81079102 C10.87247244 98.6955623 10.87930498 100.58032965 10.88793945 102.46508789 C10.90001617 105.16814136 10.90573068 107.87114331 10.91015625 110.57421875 C10.91531754 111.42213486 10.92047882 112.27005096 10.92579651 113.1436615 C10.92599195 115.16383568 10.87456211 117.18390434 10.8125 119.203125 C9.25643249 120.75919251 7.75292629 120.33283269 5.59375 120.3359375 C4.31951172 120.33787109 4.31951172 120.33787109 3.01953125 120.33984375 C2.12621094 120.33597656 1.23289062 120.33210938 0.3125 120.328125 C-0.58082031 120.33199219 -1.47414063 120.33585937 -2.39453125 120.33984375 C-3.24402344 120.33855469 -4.09351563 120.33726562 -4.96875 120.3359375 C-5.75314453 120.33480957 -6.53753906 120.33368164 -7.34570312 120.33251953 C-9.1875 120.203125 -9.1875 120.203125 -10.1875 119.203125 C-10.28548388 117.6745901 -10.31381831 116.14153536 -10.31448364 114.60986328 C-10.31730347 113.6170636 -10.32012329 112.62426392 -10.32302856 111.60137939 C-10.32100433 110.50315857 -10.3189801 109.40493774 -10.31689453 108.2734375 C-10.31864685 107.12397644 -10.32039917 105.97451538 -10.32220459 104.79022217 C-10.3266259 100.969508 -10.32368413 97.14883968 -10.3203125 93.328125 C-10.32098546 90.68636059 -10.32195542 88.04459623 -10.32321167 85.40283203 C-10.32503321 79.85774229 -10.32262747 74.31266585 -10.31787109 68.76757812 C-10.3124285 62.34817756 -10.31419117 55.92880875 -10.3196975 49.50940895 C-10.32477426 43.34511517 -10.32424711 37.18083552 -10.32131577 31.01654053 C-10.32064622 28.3881632 -10.32147588 25.75978508 -10.32379532 23.13140869 C-10.32632019 19.46518777 -10.32248357 15.79902878 -10.31689453 12.1328125 C-10.31891876 11.03459167 -10.32094299 9.93637085 -10.32302856 8.80487061 C-10.32020874 7.81207092 -10.31738892 6.81927124 -10.31448364 5.79638672 C-10.31410662 4.92843475 -10.31372959 4.06048279 -10.31334114 3.16622925 C-9.99426161 -1.81136699 -3.79229252 0.01776585 0 0 Z M10.8125 21.203125 C10.8125 34.073125 10.8125 46.943125 10.8125 60.203125 C23.78350849 61.4036151 23.78350849 61.4036151 29.8125 57.203125 C31.91064417 53.00683666 31.03938527 47.55277651 31.05273438 42.93676758 C31.06241423 40.90859561 31.09342532 38.88144858 31.125 36.85351562 C31.13015625 35.57025391 31.1353125 34.28699219 31.140625 32.96484375 C31.1499707 31.78881592 31.15931641 30.61278809 31.16894531 29.40112305 C30.98077223 25.69715418 30.98077223 25.69715418 27.8125 21.203125 C22.2025 21.203125 16.5925 21.203125 10.8125 21.203125 Z " fill="#1D5D77" transform="translate(260.1875,178.796875)"/>
<path d="M0 0 C1.56234375 -0.01160156 1.56234375 -0.01160156 3.15625 -0.0234375 C11.60272008 -0.00210803 19.33228025 0.49151476 26 6.25 C29.77832741 11.81517097 30.5828335 16.87651685 30.51757812 23.4765625 C30.5245874 24.36220886 30.53159668 25.24785522 30.53881836 26.16033936 C30.5563132 29.06555247 30.54480596 31.96977831 30.53125 34.875 C30.53394736 36.90706569 30.53783181 38.93913012 30.54284668 40.97119141 C30.54873021 45.22115418 30.54021562 49.47077969 30.52148438 53.72070312 C30.4986957 59.15458017 30.51182491 64.58766681 30.53577423 70.02151489 C30.55026311 74.21498516 30.54561203 78.40826959 30.53526306 82.60174561 C30.53260432 84.60471695 30.53583537 86.60770544 30.54518127 88.61065674 C30.55539781 91.41536835 30.53977474 94.21881923 30.51757812 97.0234375 C30.52567505 97.84237488 30.53377197 98.66131226 30.54211426 99.50506592 C30.45918484 105.19239475 29.12372866 109.46826554 26 114.25 C24.03515625 116.08984375 24.03515625 116.08984375 22.0625 117.1875 C21.41410156 117.56777344 20.76570313 117.94804687 20.09765625 118.33984375 C14.00641166 120.982786 7.31910968 120.46964847 0.8125 120.5 C-0.27353516 120.520625 -1.35957031 120.54125 -2.47851562 120.5625 C-9.79020586 120.59763124 -18.06507413 120.54831373 -23.94213867 115.62207031 C-29.67990485 109.64781573 -30.30028702 102.61604032 -30.2746582 94.70361328 C-30.27976913 93.87824066 -30.28488007 93.05286804 -30.29014587 92.20248413 C-30.30397166 89.49168514 -30.30309032 86.78114242 -30.30078125 84.0703125 C-30.30467219 82.17373562 -30.30900768 80.27715961 -30.31376648 78.38058472 C-30.32121374 74.41140922 -30.32094837 70.44232269 -30.31567383 66.47314453 C-30.30988296 61.4037943 -30.32680829 56.33480989 -30.3500185 51.2655201 C-30.36479934 47.34998469 -30.3656216 43.43453649 -30.36250877 39.51897812 C-30.36301986 37.65079906 -30.36821732 35.78261485 -30.37832069 33.91446304 C-30.39075172 31.2944636 -30.3838538 28.67516524 -30.37231445 26.05517578 C-30.37995819 25.29436707 -30.38760193 24.53355835 -30.39547729 23.74969482 C-30.33649504 17.64594157 -29.4507039 11.15335643 -25.40184498 6.35666084 C-18.36713994 -0.4780517 -9.23448675 -0.06857292 0 0 Z M-9 23.25 C-9.61106655 26.51578007 -9.61106655 26.51578007 -9.51757812 30.3359375 C-9.5245874 31.05332092 -9.53159668 31.77070435 -9.53881836 32.50982666 C-9.55642855 34.88194449 -9.54476603 37.25286998 -9.53125 39.625 C-9.53394407 41.27262603 -9.53782579 42.92025051 -9.54284668 44.56787109 C-9.54874578 48.02131281 -9.54016587 51.47434075 -9.52148438 54.92773438 C-9.49869415 59.35677015 -9.51181509 63.78483647 -9.53577423 68.21383667 C-9.55022133 71.61620401 -9.54563132 75.0183411 -9.53526306 78.42071533 C-9.53259274 80.05381383 -9.53587627 81.68693316 -9.54518127 83.32000732 C-9.55532955 85.60192308 -9.5398727 87.8822642 -9.51757812 90.1640625 C-9.51439575 91.4629541 -9.51121338 92.7618457 -9.50793457 94.10009766 C-9.29984362 97.30922736 -9.29984362 97.30922736 -7.13366699 99.16796875 C-4.44957235 100.52913443 -2.50190172 100.64974095 0.5 100.625 C1.4384375 100.63273437 2.376875 100.64046875 3.34375 100.6484375 C6.5560889 100.16658667 7.73427734 99.5784083 10 97.25 C10.61106655 93.98421993 10.61106655 93.98421993 10.51757812 90.1640625 C10.5245874 89.44667908 10.53159668 88.72929565 10.53881836 87.99017334 C10.55642855 85.61805551 10.54476603 83.24713002 10.53125 80.875 C10.53394407 79.22737397 10.53782579 77.57974949 10.54284668 75.93212891 C10.54874578 72.47868719 10.54016587 69.02565925 10.52148438 65.57226562 C10.49869415 61.14322985 10.51181509 56.71516353 10.53577423 52.28616333 C10.55022133 48.88379599 10.54563132 45.4816589 10.53526306 42.07928467 C10.53259274 40.44618617 10.53587627 38.81306684 10.54518127 37.17999268 C10.55532955 34.89807692 10.5398727 32.6177358 10.51757812 30.3359375 C10.51439575 29.0370459 10.51121338 27.7381543 10.50793457 26.39990234 C10.29984362 23.19077264 10.29984362 23.19077264 8.13366699 21.33203125 C5.44957235 19.97086557 3.50190172 19.85025905 0.5 19.875 C-0.4384375 19.86726563 -1.376875 19.85953125 -2.34375 19.8515625 C-5.5560889 20.33341333 -6.73427734 20.9215917 -9 23.25 Z " fill="#1D5D72" transform="translate(347,178.75)"/>
<path d="M0 0 C1.32735924 -0.00855011 1.32735924 -0.00855011 2.68153381 -0.01727295 C4.56380004 -0.02674514 6.44608301 -0.03326569 8.32836914 -0.03710938 C11.17950573 -0.04672941 14.02989486 -0.07769487 16.88085938 -0.109375 C18.71223532 -0.11591359 20.54361641 -0.12116069 22.375 -0.125 C23.21707504 -0.1373468 24.05915009 -0.1496936 24.92674255 -0.16241455 C31.51506718 -0.13820964 39.03440585 0.44586666 44.2386322 4.86004639 C50.37947267 11.43391387 50.60220076 18.59556568 50.62109375 27.19140625 C50.62775055 28.2491777 50.63440735 29.30694916 50.64126587 30.39677429 C50.65136867 32.62997709 50.65608363 34.86320992 50.65576172 37.09643555 C50.66012825 40.49383912 50.69645627 43.88993592 50.734375 47.28710938 C50.74024514 49.46353726 50.74421321 51.63997127 50.74609375 53.81640625 C50.76046478 54.82294754 50.77483582 55.82948883 50.78964233 56.86653137 C50.74069676 64.51049161 49.3778366 71.02905832 43.91015625 76.640625 C37.07329875 80.71018304 30.64839241 80.44661389 22.91015625 80.328125 C21.79253906 80.31910156 20.67492187 80.31007813 19.5234375 80.30078125 C16.77712163 80.27730846 14.03125153 80.24447228 11.28515625 80.203125 C11.29301147 81.96740845 11.29301147 81.96740845 11.30102539 83.76733398 C11.31907288 88.11514531 11.33058733 92.4629533 11.34008789 96.81079102 C11.34512869 98.6955623 11.35196123 100.58032965 11.3605957 102.46508789 C11.37267242 105.16814136 11.37838693 107.87114331 11.3828125 110.57421875 C11.38797379 111.42213486 11.39313507 112.27005096 11.39845276 113.1436615 C11.3986482 115.16383568 11.34721836 117.18390434 11.28515625 119.203125 C9.72908874 120.75919251 8.22558254 120.33283269 6.06640625 120.3359375 C4.79216797 120.33787109 4.79216797 120.33787109 3.4921875 120.33984375 C2.59886719 120.33597656 1.70554688 120.33210938 0.78515625 120.328125 C-0.10816406 120.33199219 -1.00148437 120.33585937 -1.921875 120.33984375 C-2.77136719 120.33855469 -3.62085938 120.33726562 -4.49609375 120.3359375 C-5.28048828 120.33480957 -6.06488281 120.33368164 -6.87304688 120.33251953 C-8.71484375 120.203125 -8.71484375 120.203125 -9.71484375 119.203125 C-9.81282763 117.6745901 -9.84116206 116.14153536 -9.84182739 114.60986328 C-9.84464722 113.6170636 -9.84746704 112.62426392 -9.85037231 111.60137939 C-9.84834808 110.50315857 -9.84632385 109.40493774 -9.84423828 108.2734375 C-9.8459906 107.12397644 -9.84774292 105.97451538 -9.84954834 104.79022217 C-9.85396965 100.969508 -9.85102788 97.14883968 -9.84765625 93.328125 C-9.84832921 90.68636059 -9.84929917 88.04459623 -9.85055542 85.40283203 C-9.85237696 79.85774229 -9.84997122 74.31266585 -9.84521484 68.76757812 C-9.83977225 62.34817756 -9.84153492 55.92880875 -9.84704125 49.50940895 C-9.85211801 43.34511517 -9.85159086 37.18083552 -9.84865952 31.01654053 C-9.84798997 28.3881632 -9.84881963 25.75978508 -9.85113907 23.13140869 C-9.85366394 19.46518777 -9.84982732 15.79902878 -9.84423828 12.1328125 C-9.84626251 11.03459167 -9.84828674 9.93637085 -9.85037231 8.80487061 C-9.84755249 7.81207092 -9.84473267 6.81927124 -9.84182739 5.79638672 C-9.84145037 4.92843475 -9.84107334 4.06048279 -9.84068489 3.16622925 C-9.52797086 -1.71206598 -3.73478958 0.01844999 0 0 Z M11.28515625 21.203125 C11.28515625 34.073125 11.28515625 46.943125 11.28515625 60.203125 C22.32573034 60.94590635 22.32573034 60.94590635 28.28515625 58.203125 C30.53461628 53.70420493 29.51237552 47.55110063 29.52539062 42.54516602 C29.53510415 40.27778551 29.56613018 38.01130861 29.59765625 35.74414062 C29.60418567 34.30469289 29.60943639 32.86523866 29.61328125 31.42578125 C29.62262695 30.11359619 29.63197266 28.80141113 29.64160156 27.44946289 C29.59286418 23.88512633 29.59286418 23.88512633 26.28515625 21.203125 C21.33515625 21.203125 16.38515625 21.203125 11.28515625 21.203125 Z " fill="#1D5B77" transform="translate(193.71484375,178.796875)"/>
<path d="M0 0 C8.25 0 16.5 0 25 0 C26.54914707 3.78992323 28.09770843 7.58007756 29.64477539 11.37084961 C30.17112311 12.66005301 30.69781305 13.94911675 31.22485352 15.23803711 C31.98283647 17.09191626 32.73948248 18.94634186 33.49609375 20.80078125 C33.95169678 21.91622314 34.4072998 23.03166504 34.87670898 24.1809082 C35.6410028 26.09903486 36.34705629 28.04116887 37 30 C37.32274902 29.16227051 37.64549805 28.32454102 37.97802734 27.46142578 C39.17774112 24.3549393 40.38216719 21.25036764 41.58984375 18.14697266 C42.11160434 16.80330934 42.63147444 15.45891033 43.14941406 14.11376953 C43.89412837 12.18065097 44.64559659 10.25027828 45.3984375 8.3203125 C45.84880371 7.15773926 46.29916992 5.99516602 46.76318359 4.79736328 C48 2 48 2 50 0 C52.43017578 -0.22705078 52.43017578 -0.22705078 55.4453125 -0.1953125 C57.05986328 -0.18564453 57.05986328 -0.18564453 58.70703125 -0.17578125 C59.83496094 -0.15902344 60.96289062 -0.14226562 62.125 -0.125 C63.82849609 -0.11146484 63.82849609 -0.11146484 65.56640625 -0.09765625 C68.37781299 -0.07403098 71.18880298 -0.04109013 74 0 C74.98325473 3.71153814 75.04421963 5.81650684 73.55639648 9.3527832 C73.21531357 10.18167557 72.87423065 11.01056793 72.52281189 11.86457825 C72.1427449 12.75102524 71.76267792 13.63747223 71.37109375 14.55078125 C70.98438004 15.48238571 70.59766632 16.41399017 70.19923401 17.37382507 C68.95753264 20.35865747 67.69826889 23.33567787 66.4375 26.3125 C65.61527643 28.27356072 64.79429988 30.23514478 63.97460938 32.19726562 C63.37308044 33.63693192 63.37308044 33.63693192 62.75939941 35.10568237 C61.19335036 38.86506775 59.63871445 42.62911927 58.08618164 46.394104 C57.06627895 48.84098787 56.01627994 51.27284101 54.9609375 53.70458984 C51.36222169 61.36143313 51.36222169 61.36143313 51.9453125 69.4375 C52.63112678 70.64899003 53.35943549 71.83726172 54.125 73 C59.73385838 83.47232399 58.66426824 94.43881283 58 106 C49.43179633 104.54470789 41.32780713 102.47360608 33 100 C33.0220752 99.15719482 33.04415039 98.31438965 33.06689453 97.44604492 C32.86916263 85.22016678 28.67261437 75.41858368 23.875 64.3125 C23.0630671 62.38434117 22.25344509 60.45520774 21.44604492 58.52514648 C18.99068708 52.67194349 16.49814717 46.83504092 14 41 C11.42506006 34.974048 8.85880147 28.94460378 6.30938721 22.9078064 C5.32938167 20.60221633 4.33241792 18.30452527 3.33349609 16.00708008 C2.73865422 14.61044573 2.14438177 13.21356866 1.55078125 11.81640625 C1.03169189 10.61443604 0.51260254 9.41246582 -0.0222168 8.17407227 C-1 5 -1 5 0 0 Z " fill="#1C5F7A" transform="translate(118,145)"/>
<path d="M0 0 C1.8125 1.375 1.8125 1.375 3 3 C3 3.66 3 4.32 3 5 C13.89 5 24.78 5 36 5 C36 5.66 36 6.32 36 7 C25.11 7 14.22 7 3 7 C2.67 8.32 2.34 9.64 2 11 C1 12 1 12 -2.375 12.3125 C-6 12 -6 12 -8 10.375 C-9.35198496 7.16403572 -9.00451167 5.30053834 -8 2 C-4.76746204 -0.15502531 -3.74849077 -0.46856135 0 0 Z " fill="#1F9538" transform="translate(50,285)"/>
<path d="M0 0 C2.875 1 2.875 1 4.875 5 C11.475 5 18.075 5 24.875 5 C24.875 5.99 24.875 6.98 24.875 8 C18.275 8 11.675 8 4.875 8 C4.215 9.32 3.555 10.64 2.875 12 C0.14186539 13.00694433 -1.53610219 13.13086618 -4.375 12.5 C-6.125 11 -6.125 11 -7.125 7.625 C-7.125 4 -7.125 4 -5.5625 1.5 C-3.125 0 -3.125 0 0 0 Z " fill="#1F9538" transform="translate(61.125,270)"/>
<path d="M0 0 C0.33 0.99 0.66 1.98 1 3 C7.6 3 14.2 3 21 3 C21 3.99 21 4.98 21 6 C14.4 6 7.8 6 1 6 C0.34 7.32 -0.32 8.64 -1 10 C-3.73313461 11.00694433 -5.41110219 11.13086618 -8.25 10.5 C-10 9 -10 9 -10.875 5.5625 C-11 2 -11 2 -9 -1 C-5.19881294 -2.26706235 -3.6149628 -1.57172296 0 0 Z " fill="#1F9538" transform="translate(65,302)"/>
<path d="M0 0 C1.79133978 -0.05391993 3.58313899 -0.09275571 5.375 -0.125 C6.37273437 -0.14820313 7.37046875 -0.17140625 8.3984375 -0.1953125 C11 0 11 0 13 2 C13.26991906 4.68839385 13.08737357 7.29141936 13 10 C12.34 10 11.68 10 11 10 C10.814375 8.2984375 10.814375 8.2984375 10.625 6.5625 C10.41875 5.386875 10.2125 4.21125 10 3 C9.34 2.67 8.68 2.34 8 2 C7.67 4.64 7.34 7.28 7 10 C6.34 10 5.68 10 5 10 C4.67 7.69 4.34 5.38 4 3 C3.67 3 3.34 3 3 3 C2.67 5.31 2.34 7.62 2 10 C1.34 10 0.68 10 0 10 C0 6.7 0 3.4 0 0 Z " fill="#000000" transform="translate(226,306)"/>
<path d="M0 0 C1.4540625 0.0309375 1.4540625 0.0309375 2.9375 0.0625 C3.2675 1.7125 3.5975 3.3625 3.9375 5.0625 C3.2775 5.0625 2.6175 5.0625 1.9375 5.0625 C1.9375 4.0725 1.9375 3.0825 1.9375 2.0625 C-0.0425 3.0525 -0.0425 3.0525 -2.0625 4.0625 C-0.6084375 4.68125 -0.6084375 4.68125 0.875 5.3125 C3.9375 7.0625 3.9375 7.0625 4.875 9.125 C4.9375 11.0625 4.9375 11.0625 3.9375 13.0625 C1.01036212 14.01184202 -0.49081368 14.29426473 -3.375 13.125 C-3.931875 12.774375 -4.48875 12.42375 -5.0625 12.0625 C-5.0625 11.0725 -5.0625 10.0825 -5.0625 9.0625 C-4.4025 9.0625 -3.7425 9.0625 -3.0625 9.0625 C-3.0625 9.7225 -3.0625 10.3825 -3.0625 11.0625 C-1.7425 11.0625 -0.4225 11.0625 0.9375 11.0625 C0.9375 10.4025 0.9375 9.7425 0.9375 9.0625 C-1.02397874 7.67311923 -3.02416576 6.3364589 -5.0625 5.0625 C-3.9375 0.08035714 -3.9375 0.08035714 0 0 Z " fill="#000000" transform="translate(190.0625,302.9375)"/>
<path d="M0 0 C0.66 0 1.32 0 2 0 C2 4.29 2 8.58 2 13 C-3 14 -3 14 -6 12 C-6.3125 8.5 -6.3125 8.5 -6 5 C-5.34 4.34 -4.68 3.68 -4 3 C-3.01 3 -2.02 3 -1 3 C-0.67 2.01 -0.34 1.02 0 0 Z M-3 5 C-4.29633621 6.06645115 -4.29633621 6.06645115 -4.0625 8.5625 C-4.041875 9.366875 -4.02125 10.17125 -4 11 C-3.01 11 -2.02 11 -1 11 C0.01111093 7.95086772 0.01111093 7.95086772 -1 5 C-1.66 5 -2.32 5 -3 5 Z " fill="#000000" transform="translate(311,303)"/>
<path d="M0 0 C0.66 0 1.32 0 2 0 C2 4.29 2 8.58 2 13 C-3 14 -3 14 -6 12 C-6.3125 8.5 -6.3125 8.5 -6 5 C-5.34 4.34 -4.68 3.68 -4 3 C-3.01 3 -2.02 3 -1 3 C-0.67 2.01 -0.34 1.02 0 0 Z M-3 5 C-4.29633621 6.06645115 -4.29633621 6.06645115 -4.0625 8.5625 C-4.041875 9.366875 -4.02125 10.17125 -4 11 C-3.01 11 -2.02 11 -1 11 C0.01111093 7.95086772 0.01111093 7.95086772 -1 5 C-1.66 5 -2.32 5 -3 5 Z " fill="#000000" transform="translate(260,303)"/>
<path d="M0 0 C0.66 0 1.32 0 2 0 C2 4.29 2 8.58 2 13 C-2 14 -2 14 -5 13 C-6.34261242 6.53104925 -6.34261242 6.53104925 -4.75 4.0625 C-3 3 -3 3 0 3 C0 2.01 0 1.02 0 0 Z M-2 5 C-2.66 5.66 -3.32 6.32 -4 7 C-3.6814823 9.10820797 -3.6814823 9.10820797 -3 11 C-2.01 11 -1.02 11 0 11 C0 9.35 0 7.7 0 6 C-0.66 5.67 -1.32 5.34 -2 5 Z " fill="#000000" transform="translate(392,303)"/>
<path d="M0 0 C6.15234375 -0.09765625 6.15234375 -0.09765625 8 0 C9 1 9 1 9.1875 3.4375 C9 6 9 6 7 8 C4.375 8.125 4.375 8.125 2 8 C2 9.65 2 11.3 2 13 C1.34 13 0.68 13 0 13 C0 8.71 0 4.42 0 0 Z M2 2 C2 3.32 2 4.64 2 6 C3.65 5.67 5.3 5.34 7 5 C6.67 4.01 6.34 3.02 6 2 C4.68 2 3.36 2 2 2 Z " fill="#000000" transform="translate(278,303)"/>
<path d="M0 0 C4.55555556 0.55555556 4.55555556 0.55555556 6 2 C6.14115161 4.67058851 6.04247107 7.32432238 6 10 C2.71303767 10.79953138 1.28976808 11.09658936 -2 10 C-2.1953125 3.9453125 -2.1953125 3.9453125 -2 2 C-1.34 1.34 -0.68 0.68 0 0 Z M1 2 C0.67 2.66 0.34 3.32 0 4 C1.32 3.67 2.64 3.34 4 3 C3.01 2.67 2.02 2.34 1 2 Z M0 6 C0.33 6.99 0.66 7.98 1 9 C1.99 8.01 2.98 7.02 4 6 C2.68 6 1.36 6 0 6 Z " fill="#000000" transform="translate(435,306)"/>
<path d="M0 0 C0 2.97 0 5.94 0 9 C-4.4143167 10.31236443 -4.4143167 10.31236443 -6.875 9 C-8.65049945 5.84355654 -7.82068609 3.40900375 -7 0 C-4.3333581 -1.33332095 -2.83319697 -0.67102033 0 0 Z M-4 1 C-4.33 1.66 -4.66 2.32 -5 3 C-4.01 3 -3.02 3 -2 3 C-2 2.34 -2 1.68 -2 1 C-2.66 1 -3.32 1 -4 1 Z M-5 5 C-4.67 5.99 -4.34 6.98 -4 8 C-3.34 7.67 -2.68 7.34 -2 7 C-2 6.34 -2 5.68 -2 5 C-2.99 5 -3.98 5 -5 5 Z " fill="#000000" transform="translate(248,307)"/>
<path d="M0 0 C1.125 6.75 1.125 6.75 0 9 C-2.9737344 10.09036928 -3.88407501 10.03864166 -7 9 C-8.33078101 2.58805513 -8.33078101 2.58805513 -6.875 0 C-4.28103624 -1.38344734 -2.74857743 -0.81714464 0 0 Z M-4 1 C-4.66 1.66 -5.32 2.32 -6 3 C-5.6814823 5.10820797 -5.6814823 5.10820797 -5 7 C-4.01 7 -3.02 7 -2 7 C-1.67 5.68 -1.34 4.36 -1 3 C-1.99 2.34 -2.98 1.68 -4 1 Z " fill="#000000" transform="translate(356,307)"/>
<path d="M0 0 C2.625 0.375 2.625 0.375 5 1 C5.33 2.65 5.66 4.3 6 6 C4.02 6 2.04 6 0 6 C0 6.66 0 7.32 0 8 C1.65 7.67 3.3 7.34 5 7 C5 7.99 5 8.98 5 10 C3.1875 10.625 3.1875 10.625 1 11 C0.01 10.34 -0.98 9.68 -2 9 C-2.3125 5.5 -2.3125 5.5 -2 2 C-1.34 1.34 -0.68 0.68 0 0 Z M1 2 C0.67 2.66 0.34 3.32 0 4 C1.32 3.67 2.64 3.34 4 3 C3.01 2.67 2.02 2.34 1 2 Z " fill="#000000" transform="translate(266,306)"/>
<path d="M0 0 C2.625 0.375 2.625 0.375 5 1 C5.33 2.65 5.66 4.3 6 6 C4.02 6 2.04 6 0 6 C0 6.66 0 7.32 0 8 C1.65 7.67 3.3 7.34 5 7 C5 7.99 5 8.98 5 10 C3.1875 10.625 3.1875 10.625 1 11 C0.01 10.34 -0.98 9.68 -2 9 C-2.3125 5.5 -2.3125 5.5 -2 2 C-1.34 1.34 -0.68 0.68 0 0 Z M1 2 C0.67 2.66 0.34 3.32 0 4 C1.32 3.67 2.64 3.34 4 3 C3.01 2.67 2.02 2.34 1 2 Z " fill="#000000" transform="translate(218,306)"/>
<path d="M0 0 C0 0.99 0 1.98 0 3 C-0.66 3 -1.32 3 -2 3 C-2 2.34 -2 1.68 -2 1 C-2.99 1.495 -2.99 1.495 -4 2 C-3.360625 2.268125 -2.72125 2.53625 -2.0625 2.8125 C0 4 0 4 1 7 C0.67 7.66 0.34 8.32 0 9 C-1.98 9 -3.96 9 -6 9 C-6.33 8.01 -6.66 7.02 -7 6 C-5.68 6 -4.36 6 -3 6 C-4.32 5.34 -5.64 4.68 -7 4 C-7 2.68 -7 1.36 -7 0 C-4.3333581 -1.33332095 -2.83319697 -0.67102033 0 0 Z " fill="#000000" transform="translate(413,307)"/>
<path d="M0 0 C0.639375 0.2475 1.27875 0.495 1.9375 0.75 C2.2675 1.74 2.5975 2.73 2.9375 3.75 C0.4625 2.76 0.4625 2.76 -2.0625 1.75 C-2.0625 2.41 -2.0625 3.07 -2.0625 3.75 C0.4125 4.74 0.4125 4.74 2.9375 5.75 C2.6075 7.07 2.2775 8.39 1.9375 9.75 C-0.0425 9.75 -2.0225 9.75 -4.0625 9.75 C-4.3925 8.76 -4.7225 7.77 -5.0625 6.75 C-3.4125 6.75 -1.7625 6.75 -0.0625 6.75 C-1.7125 5.76 -3.3625 4.77 -5.0625 3.75 C-4.7325 2.76 -4.4025 1.77 -4.0625 0.75 C-2.0625 -0.25 -2.0625 -0.25 0 0 Z " fill="#000000" transform="translate(205.0625,306.25)"/>
<path d="M0 0 C0.66 0 1.32 0 2 0 C2.33 2.64 2.66 5.28 3 8 C3.66 7.67 4.32 7.34 5 7 C5.40729228 4.67843403 5.74438677 2.3431213 6 0 C6.66 0 7.32 0 8 0 C8 3.3 8 6.6 8 10 C5.6875 10.625 5.6875 10.625 3 11 C2.01 10.34 1.02 9.68 0 9 C-0.29296875 6.8359375 -0.29296875 6.8359375 -0.1875 4.375 C-0.16042969 3.55773437 -0.13335937 2.74046875 -0.10546875 1.8984375 C-0.05326172 0.95871094 -0.05326172 0.95871094 0 0 Z " fill="#000000" transform="translate(315,306)"/>
<path d="M0 0 C2.6875 0.875 2.6875 0.875 5 2 C5 4.31 5 6.62 5 9 C2.6875 10.125 2.6875 10.125 0 11 C-0.99 10.34 -1.98 9.68 -3 9 C-3.375 5.5 -3.375 5.5 -3 2 C-2.01 1.34 -1.02 0.68 0 0 Z M0 2 C-1.29633621 3.06645115 -1.29633621 3.06645115 -1.0625 5.5625 C-1.041875 6.366875 -1.02125 7.17125 -1 8 C-0.01 8.495 -0.01 8.495 1 9 C1.66 8.67 2.32 8.34 3 8 C3 6.35 3 4.7 3 3 C2.01 2.67 1.02 2.34 0 2 Z " fill="#000000" transform="translate(298,306)"/>
<path d="M0 0 C0.66 0 1.32 0 2 0 C2.185625 1.7015625 2.185625 1.7015625 2.375 3.4375 C2.684375 5.2009375 2.684375 5.2009375 3 7 C3.66 7.33 4.32 7.66 5 8 C5.33 5.36 5.66 2.72 6 0 C6.66 0 7.32 0 8 0 C8 3.3 8 6.6 8 10 C4 11 4 11 1 10 C-0.60725635 6.78548731 -0.05748185 3.56387464 0 0 Z " fill="#000000" transform="translate(396,306)"/>
<path d="M0 0 C2.3431213 0.25561323 4.67843403 0.59270772 7 1 C8.4783226 3.95664519 8.06032783 6.74229737 8 10 C7.34 10 6.68 10 6 10 C5.34 7.69 4.68 5.38 4 3 C3.67 3 3.34 3 3 3 C2.67 5.31 2.34 7.62 2 10 C1.34 10 0.68 10 0 10 C0 6.7 0 3.4 0 0 Z " fill="#000000" transform="translate(377,306)"/>
<path d="M0 0 C2.31 0.33 4.62 0.66 7 1 C7 3.97 7 6.94 7 10 C6.34 10 5.68 10 5 10 C4.67 7.69 4.34 5.38 4 3 C3.67 3 3.34 3 3 3 C2.67 5.31 2.34 7.62 2 10 C1.34 10 0.68 10 0 10 C0 6.7 0 3.4 0 0 Z " fill="#000000" transform="translate(359,306)"/>
<path d="M0 0 C2.625 0.375 2.625 0.375 5 1 C5.33 1.99 5.66 2.98 6 4 C4.35 3.67 2.7 3.34 1 3 C1 4.65 1 6.3 1 8 C2.65 7.67 4.3 7.34 6 7 C5.67 7.99 5.34 8.98 5 10 C3.125 10.8125 3.125 10.8125 1 11 C0.01 10.34 -0.98 9.68 -2 9 C-2.3125 5.5 -2.3125 5.5 -2 2 C-1.34 1.34 -0.68 0.68 0 0 Z " fill="#000000" transform="translate(327,306)"/>
<path d="M0 0 C0.61875 0.268125 1.2375 0.53625 1.875 0.8125 C2.205 1.8025 2.535 2.7925 2.875 3.8125 C1.225 3.4825 -0.425 3.1525 -2.125 2.8125 C-2.455 4.4625 -2.785 6.1125 -3.125 7.8125 C-1.145 7.4825 0.835 7.1525 2.875 6.8125 C2.545 7.8025 2.215 8.7925 1.875 9.8125 C-1.125 10.8125 -1.125 10.8125 -3.3125 9.875 C-3.910625 9.524375 -4.50875 9.17375 -5.125 8.8125 C-5.3125 5.4375 -5.3125 5.4375 -5.125 1.8125 C-2.125 -0.1875 -2.125 -0.1875 0 0 Z " fill="#000000" transform="translate(339.125,306.1875)"/>
<path d="M0 0 C0.66 0 1.32 0 2 0 C2 0.66 2 1.32 2 2 C2.99 2 3.98 2 5 2 C5 2.66 5 3.32 5 4 C4.01 4 3.02 4 2 4 C2 5.98 2 7.96 2 10 C2.99 10.33 3.98 10.66 5 11 C3.0625 11.5625 3.0625 11.5625 1 12 C-0.56367978 10.43632022 -0.383179 8.72161607 -0.625 6.5625 C-0.72039062 5.75941406 -0.81578125 4.95632813 -0.9140625 4.12890625 C-1 2 -1 2 0 0 Z " fill="#000000" transform="translate(210,304)"/>
<path d="M0 0 C0.66 0 1.32 0 2 0 C2 0.66 2 1.32 2 2 C2.66 2 3.32 2 4 2 C4 2.66 4 3.32 4 4 C3.34 4 2.68 4 2 4 C2 5.98 2 7.96 2 10 C2.66 10 3.32 10 4 10 C4 10.66 4 11.32 4 12 C2.68 12 1.36 12 0 12 C-0.19477739 10.37585622 -0.38059458 8.75063577 -0.5625 7.125 C-0.66691406 6.22007812 -0.77132813 5.31515625 -0.87890625 4.3828125 C-1 2 -1 2 0 0 Z " fill="#000000" transform="translate(416,304)"/>
<path d="M0 0 C1.98 0 3.96 0 6 0 C5 3 5 3 3 4 C2.34227572 7.02934491 2.34227572 7.02934491 2 10 C1.34 10 0.68 10 0 10 C0 6.7 0 3.4 0 0 Z " fill="#000000" transform="translate(288,306)"/>
<path d="M0 0 C0.99 0 1.98 0 3 0 C3 4.29 3 8.58 3 13 C2.34 13 1.68 13 1 13 C0.67 8.71 0.34 4.42 0 0 Z " fill="#000000" transform="translate(428,303)"/>
<path d="M0 0 C1.65 0 3.3 0 5 0 C4.67 0.99 4.34 1.98 4 3 C3.67 3 3.34 3 3 3 C2.67 5.31 2.34 7.62 2 10 C1.34 10 0.68 10 0 10 C0 6.7 0 3.4 0 0 Z " fill="#000000" transform="translate(422,306)"/>
<path d="M0 0 C0.99 0 1.98 0 3 0 C3 4.29 3 8.58 3 13 C2.34 13 1.68 13 1 13 C0.67 8.71 0.34 4.42 0 0 Z " fill="#000000" transform="translate(196,303)"/>
<path d="M0 0 C0.66 0 1.32 0 2 0 C2 4.29 2 8.58 2 13 C1.34 13 0.68 13 0 13 C0 8.71 0 4.42 0 0 Z " fill="#000000" transform="translate(443,303)"/>
<path d="M0 0 C0.66 0 1.32 0 2 0 C2 4.29 2 8.58 2 13 C1.34 13 0.68 13 0 13 C0 8.71 0 4.42 0 0 Z " fill="#000000" transform="translate(372,303)"/>
<path d="M0 0 C0.66 0 1.32 0 2 0 C2 4.29 2 8.58 2 13 C1.34 13 0.68 13 0 13 C0 8.71 0 4.42 0 0 Z " fill="#000000" transform="translate(344,303)"/>
</svg>
